<?xml version="1.0" encoding="UTF-8"?><!DOCTYPE svg PUBLIC "-//W3C//DTD SVG 1.1//EN" "http://www.w3.org/Graphics/SVG/1.1/DTD/svg11.dtd"><svg xmlns="http://www.w3.org/2000/svg"><symbol id="uEA01-facebook" viewBox="-143.5 300.5 500 500"><path d="M273.172 300.5H-60.172c-46.005 0-83.328 37.323-83.328 83.344v333.312c0 46.02 37.292 83.344 83.328 83.344H106.5V581.75H44v-62.5h62.5v-46.875c0-43.12 35.004-78.125 78.125-78.125h78.125v62.5h-78.125c-8.62 0-15.625 7.004-15.625 15.625v46.875h85.938l-15.625 62.5H169V800.5h104.172c46.005 0 83.328-37.323 83.328-83.344V383.844c0-46.02-37.293-83.344-83.328-83.344z"/></symbol><symbol id="uEA02-instagram" viewBox="0 0 500 500"><path d="M442.328 211.514h-43.53c3.17 12.312 5.043 25.18 5.043 38.474 0 84.978-68.872 153.85-153.835 153.85s-153.84-68.872-153.84-153.85c0-13.295 1.88-26.162 5.052-38.474H57.69V423.07c0 10.603 8.61 19.213 19.244 19.213H423.07c10.647 0 19.262-8.602 19.262-19.214V211.513h-.004zm0-134.605c0-10.612-8.614-19.225-19.253-19.225h-57.678c-10.625 0-19.235 8.612-19.235 19.23v57.706c0 10.614 8.606 19.23 19.235 19.23h57.678c10.64 0 19.253-8.615 19.253-19.23V76.906v.004zM250 153.843c-53.11 0-96.156 43.043-96.156 96.147 0 53.097 43.047 96.164 96.157 96.164 53.107 0 96.162-43.067 96.162-96.16 0-53.107-43.055-96.15-96.16-96.15M442.327 500H57.683C25.835 500 0 474.16 0 442.283V57.68C0 25.825 25.83 0 57.683 0h384.645c31.856 0 57.678 25.824 57.678 57.68v384.603c0 31.878-25.82 57.712-57.678 57.712"/></symbol><symbol id="uEA03-twitter" viewBox="0 0 500 500"><path d="M500 94.91c-18.387 8.155-38.178 13.672-58.898 16.15 21.148-12.702 37.414-32.813 45.09-56.746-19.853 11.75-41.795 20.31-65.17 24.887-18.678-19.92-45.335-32.355-74.814-32.355-56.687 0-102.6 45.937-102.6 102.577 0 8.05.907 15.877 2.662 23.377-85.25-4.297-160.85-45.16-211.442-107.187C26 80.763 20.92 98.358 20.92 117.173c0 35.59 18.127 66.985 45.662 85.388-16.815-.525-32.63-5.156-46.47-12.81v1.282c0 49.69 35.338 91.164 82.26 100.58a103.029 103.029 0 0 1-27.032 3.584c-6.592 0-13.016-.61-19.28-1.83 13.048 40.74 50.942 70.403 95.834 71.243-35.126 27.51-79.376 43.898-127.426 43.898-8.278 0-16.434-.488-24.468-1.435 45.372 29.1 99.297 46.08 157.234 46.08 188.683 0 291.878-156.31 291.878-291.868 0-4.456-.107-8.88-.32-13.283 20.05-14.442 37.46-32.5 51.208-53.078v-.014z"/></symbol></svg>